Coordinates
version=1
nRows=8
nColumns=36
inDegrees=yes

Units are S.I. units (second, meters, Newtons, ...)
If the header above contains a line with 'inDegrees', this indicates whether rotational values are in degrees (yes) or radians (no).

endheader
time	pelvis_tilt	pelvis_list	pelvis_rotation	pelvis_tx	pelvis_ty	pelvis_tz	hip_flexion_r	hip_adduction_r	hip_rotation_r	knee_angle_r	knee_angle_r_beta	ankle_angle_r	subtalar_angle_r	mtp_angle_r	hip_flexion_l	hip_adduction_l	hip_rotation_l	knee_angle_l	knee_angle_l_beta	ankle_angle_l	subtalar_angle_l	mtp_angle_l	lumbar_extension	lumbar_bending	lumbar_rotation	arm_flex_r	arm_add_r	arm_rot_r	elbow_flex_r	pro_sup_r	arm_flex_l	arm_add_l	arm_rot_l	elbow_flex_l	pro_sup_l
      2.91666670	    -26.36530806	     -4.12913562	      9.72730396	      0.85312954	      0.64874441	     -0.01361754	     87.96908897	      3.50678739	      6.87075083	     94.02456918	      1.64103831	     29.48119558	    -21.70981571	     -7.49999987	     86.21626042	    -15.20236920	      0.66980294	     93.18511232	      1.62638702	     29.69750423	     -5.90043579	     -7.49999987	    -41.01146541	     -5.83209854	      0.54612391	     61.03463311	     -3.87686821	     17.89206883	     79.10311543	     96.53350615	     53.50731772	    -12.93528223	     13.24584909	     95.27451228	     92.73013605
      2.93333330	    -21.72033697	     -2.35759060	      9.08496606	      0.90101472	      0.67435113	     -0.02948339	     79.05797147	      3.49239597	      8.54118423	     90.85364828	      1.58569530	     29.02900758	    -21.66701623	     -7.49999987	     76.63407695	    -15.21340925	     -2.36881135	     90.02768460	      1.57127951	     28.13391405	     -7.64257420	     -7.49999987	    -44.43814972	     -6.14031212	      1.15833638	     52.91494033	     -5.47798804	     14.87717319	     60.30119446	     93.05875327	     46.44076110	    -12.46363157	      9.12461731	     71.66043239	     89.24304524
      2.95000000	    -18.26802653	     -0.75401659	      8.80016793	      0.90620056	      0.68555042	     -0.02611327	     71.87600905	      3.01031374	      9.72577895	     87.94824042	      1.53498637	     28.33911546	    -22.60764926	     -7.49999987	     69.23750833	    -14.36051600	     -4.63242555	     87.40767013	      1.52555164	     27.62358677	     -9.93972858	     -7.49999987	    -45.27346024	     -6.53741128	      1.01450013	     43.70981612	     -7.39236031	     11.01093726	     46.57291981	     96.53237021	     41.00188593	    -14.60099347	     10.14369682	     48.61078783	     90.18764484
      2.96666670	    -15.40067205	      0.47425233	      8.77910377	      0.89716635	      0.71110112	     -0.02676813	     66.45703720	      2.21105171	     10.55573019	     85.39059759	      1.49034708	     27.44491308	    -22.44109239	     -7.49999987	     63.33873052	    -12.88889028	     -6.04385219	     84.43005457	      1.47358244	     25.47519331	    -12.46462349	     -7.49999987	    -45.19930281	     -6.80336910	     -1.19424043	     34.98521308	     -8.97326319	      9.84149336	     31.66540070	     95.92367820	     32.92016564	    -17.78847155	      9.88661488	     33.84488131	     89.36167052
      2.98333330	    -13.59980494	      1.33886830	      8.70492865	      0.90062612	      0.73056798	     -0.04173956	     62.52259800	      1.07217031	     11.23166136	     82.92514250	      1.44731677	     26.22083042	    -22.23181056	     -7.49999987	     59.11629876	    -11.10100421	     -7.18125443	     81.65183477	      1.42509336	     23.66618625	    -15.66665539	     -7.49999987	    -42.75846951	     -5.82529865	     -0.06044394	     24.68855041	    -13.12568622	     11.90498079	     18.47998885	     88.72710814	     21.23344512	    -18.65057788	     13.88744062	     24.45708401	     83.13613812
      3.00000000	    -11.33878170	      2.03325427	      8.95640518	      0.93213646	      0.75114145	     -0.04825877	     56.50480949	      0.00364824	     11.59031085	     79.48842962	      1.38733481	     25.02855436	    -22.55636551	     -7.49999987	     53.15595604	     -9.71276586	     -8.12081675	     77.92304672	      1.36001373	     22.04845065	    -17.01263480	     -7.49999987	    -40.19290737	     -5.02002597	     -1.72682583	     12.15655550	    -14.76323534	      7.72247110	     13.53714335	     84.35479680	     10.15567566	    -19.87532822	     10.96175813	     17.32295125	     80.06229203
      3.01666670	    -11.00886024	      2.24422290	      9.28460019	      0.92517645	      0.78137808	     -0.04595606	     52.95048902	     -0.88433364	     11.39202635	     74.70629041	      1.30387074	     22.24588659	    -23.87245619	     -7.49999987	     49.24073079	     -8.15186161	     -8.46322571	     72.79579555	      1.27052631	     20.06500641	    -18.33023784	     -7.49999987	    -36.34131259	     -2.89020785	     -2.09432015	      0.78778896	    -16.65064280	     -2.54110844	      9.70838711	     78.84658771	      3.24981667	    -21.01660013	      0.53425402	     13.63354062	     84.25132116
      3.03333330	    -10.28669602	      2.12018393	      8.66438880	      0.94141026	      0.80121936	     -0.05422698	     48.96527779	     -0.97383312	     11.35202507	     69.89314178	      1.21986545	     19.38336264	    -24.65203113	     -7.49999987	     44.41467941	     -7.68282634	     -9.04530617	     67.44850037	      1.17719841	     17.56652225	    -19.20742611	     -7.49999987	    -31.72119270	     -1.34317847	     -3.91958547	    -11.42262511	    -20.22410826	     -4.55598340	      8.50794754	     77.31227930	     -5.81451984	    -22.56301900	     -0.81583657	     12.27286710	     83.28690881
